:SAMPLES-PER-SECOND 30
:FULLY-SPECIFIED
:DEGREES
763
root  -27.0997 37.6797 1.60305 69.0649 -84.9515 -78.881
RightUpLeg  -16.0413 -10.0841 4.15253
RightLeg  32.6099 0.474943 0.0618024
RightFoot  -5.93171 0.175334 -4.56005
RightToes  2.21189e-009 0 -3.6325e-017
Spine  6.06548 -3.27758 11.5551
Spine1  12.1313 -2.18707 2.2592
HEad  -4.52148 2.46519 -3.50871
LeftShoulder1  -0.343866 4.36209 -33.9147
LeftArm  -4.58656 14.9435 -33.4898
LeftForeArm  51.1858 -78.1865 -64.8871
LeftHand  -0.114055 0.700931 2.76408
RightShoulder  -0.988965 -6.14932 30.808
RightArm  -4.66635 -23.9485 25.7724
RightForeArm  107.964 73.9779 135.745
RightHand  -0.487925 8.52586 -4.43736
LeftUpLeg  -1.83411 -0.588503 9.51239
LeftLeg  67.2027 -1.58968 -3.46925
LeftFoot  7.18611 0.663866 -4.36687
LeftToes  -3.01956e-010 3.07132e-011 1.04116e-011
764
root  -28.4447 38.0671 1.33559 62.7534 -85.3249 -72.8568
RightUpLeg  -12.488 -10.818 3.4826
RightLeg  31.2994 0.88489 0.321742
RightFoot  -7.81928 0.0773279 -4.17194
RightToes  2.21189e-009 0 -3.6325e-017
Spine  5.81782 -3.10861 11.6411
Spine1  12.0829 -1.78989 1.56679
HEad  -3.60934 2.03439 -3.5979
LeftShoulder1  -0.324648 4.31992 -33.6303
LeftArm  -4.7913 14.8708 -33.8826
LeftForeArm  51.3834 -78.1887 -64.7377
LeftHand  -0.104082 0.604053 2.47393
RightShoulder  -1.02475 -6.21383 31.2475
RightArm  -4.69005 -23.4681 25.6435
RightForeArm  105.854 74.2897 134.418
RightHand  -0.589029 8.53005 -5.28086
LeftUpLeg  -6.80094 -0.120539 8.65738
LeftLeg  69.2468 -1.44374 -3.44713
LeftFoot  5.92715 0.437079 -3.12138
LeftToes  -3.01956e-010 3.07132e-011 1.04116e-011
765
root  -29.7832 38.4406 1.06866 63.1205 -85.9957 -73.1895
RightUpLeg  -9.14341 -10.5778 2.8724
RightLeg  29.4474 1.0999 0.406473
RightFoot  -9.4509 -0.00941963 -3.38518
RightToes  2.21189e-009 0 -3.6325e-017
Spine  5.11171 -2.51233 11.4077
Spine1  12.224 -1.20866 1.39736
HEad  -2.71698 1.69312 -4.1236
LeftShoulder1  -0.385131 4.46543 -33.9046
LeftArm  -4.83506 14.3549 -33.8251
LeftForeArm  51.9108 -78.2348 -65.1884
LeftHand  -0.0964402 0.72973 2.33057
RightShoulder  -1.00391 -6.18562 30.8591
RightArm  -5.20649 -23.2696 26.3584
RightForeArm  106.541 74.244 134.68
RightHand  -0.589416 8.18842 -5.40192
LeftUpLeg  -11.2659 0.908907 7.47656
LeftLeg  68.2319 -1.77487 -4.13538
LeftFoot  3.81225 0.290654 -2.3431
LeftToes  -3.01956e-010 3.07132e-011 1.04116e-011
766
root  -31.1232 38.7778 0.860199 64.8576 -86.3683 -75.1204
RightUpLeg  -5.26544 -11.234 2.31832
RightLeg  27.0222 1.84646 0.862801
RightFoot  -10.5429 -0.0461348 -3.56778
RightToes  2.21189e-009 0 -3.6325e-017
Spine  4.60962 -2.15806 11.7459
Spine1  12.0611 -0.771823 0.658234
HEad  -1.79459 1.69283 -4.76266
LeftShoulder1  -0.373849 4.43502 -33.9988
LeftArm  -5.36296 14.4702 -33.7405
LeftForeArm  52.5233 -78.2907 -65.7916
LeftHand  -0.0819345 0.832139 1.9989
RightShoulder  -0.933296 -6.02319 30.4614
RightArm  -5.42069 -23.2028 27.1341
RightForeArm  107.37 74.1405 135.149
RightHand  -0.561796 7.4911 -5.41229
LeftUpLeg  -14.6946 1.9744 6.53746
LeftLeg  64.4316 -2.82352 -5.78276
LeftFoot  0.625304 0.193653 -1.90729
LeftToes  -3.01956e-010 3.07132e-011 1.04116e-011
767
root  -32.479 39.0774 0.634185 70.4865 -87.1 -81.2136
RightUpLeg  -0.937704 -11.4435 1.1621
RightLeg  24.3499 2.49858 1.51203
RightFoot  -11.6675 -0.0894979 -3.62451
RightToes  2.21189e-009 0 -3.6325e-017
Spine  4.42864 -1.66176 11.3635
Spine1  11.8323 -0.231851 -0.0697937
HEad  -1.58315 1.95253 -5.12714
LeftShoulder1  -0.348532 4.37543 -33.822
LeftArm  -5.51704 14.5332 -33.4835
LeftForeArm  54.0137 -78.4222 -67.4175
LeftHand  -0.082773 0.828729 2.01974
RightShoulder  -0.980536 -6.13418 30.7014
RightArm  -5.50341 -22.5764 27.234
RightForeArm  107.103 74.1427 135.096
RightHand  -0.566211 7.78645 -5.3378
LeftUpLeg  -16.6111 3.24002 5.2948
LeftLeg  57.6662 -3.90623 -6.13612
LeftFoot  -1.21189 0.232462 -2.54493
LeftToes  -3.01956e-010 3.07132e-011 1.04116e-011
768
root  -33.8123 39.2812 0.393568 95.3254 -87.642 -106.016
RightUpLeg  2.52019 -10.2741 0.737517
RightLeg  21.847 2.53847 1.69239
RightFoot  -12.5837 -0.126526 -3.85933
RightToes  2.21189e-009 0 -3.6325e-017
Spine  3.41741 -0.816745 11.1311
Spine1  12.1619 0.569964 -0.84659
HEad  -1.53497 2.46849 -5.22684
LeftShoulder1  -0.318454 4.309 -33.3885
LeftArm  -5.57244 14.54 -33.2129
LeftForeArm  56.1381 -78.6012 -70.0186
LeftHand  -0.100017 0.784088 2.44527
RightShoulder  -1.00942 -6.20226 30.8299
RightArm  -5.60302 -21.7611 27.7098
RightForeArm  107.564 74.1855 135.043
RightHand  -0.484633 7.54528 -4.70141
LeftUpLeg  -17.9061 5.30111 4.55629
LeftLeg  48.687 -4.45707 -5.04211
LeftFoot  -2.43444 0.271099 -3.28583
LeftToes  -3.01956e-010 3.07132e-011 1.04116e-011
769
root  -35.09 39.3768 0.1976 103.629 -87.3737 -114.511
RightUpLeg  6.16048 -9.70137 0.755966
RightLeg  19.3736 2.48898 1.86853
RightFoot  -13.5943 -0.165236 -3.72456
RightToes  2.21189e-009 0 -3.6325e-017
Spine  2.95149 -0.506807 11.2087
Spine1  12.1456 0.744297 -1.16871
HEad  -1.56903 2.60539 -5.42999
LeftShoulder1  -0.377754 4.44909 -33.8022
LeftArm  -5.65179 13.4512 -32.7414
LeftForeArm  54.3228 -78.4815 -68.7253
LeftHand  -0.113691 0.279065 2.57545
RightShoulder  -0.922075 -5.99989 30.3528
RightArm  -5.93953 -21.0829 28.7695
RightForeArm  106.852 74.2751 134.636
RightHand  -0.5723 7.60601 -5.46135
LeftUpLeg  -18.1529 6.60721 4.37697
LeftLeg  37.9242 -4.23648 -3.17178
LeftFoot  -2.07793 0.357024 -4.23992
LeftToes  -3.01956e-010 3.07132e-011 1.04116e-011
770
root  -36.369 39.4109 0.0516542 102.398 -86.9657 -113.932
RightUpLeg  10.5769 -9.33646 0.848495
RightLeg  16.3926 2.33817 2.03175
RightFoot  -14.4318 -0.196138 -3.65833
RightToes  2.21189e-009 0 -3.6325e-017
Spine  2.8064 -0.501764 11.8997
Spine1  12.3675 0.909708 -2.45407
HEad  -1.7859 2.19698 -4.68501
LeftShoulder1  -0.329509 4.34552 -33.0187
LeftArm  -5.88898 12.6156 -33.3692
LeftForeArm  53.3781 -78.4084 -67.9102
LeftHand  -0.117484 0.538283 2.7712
RightShoulder  -0.945052 -6.03822 30.6892
RightArm  -6.41013 -19.789 29.5308
RightForeArm  106.67 74.4893 133.913
RightHand  -0.479613 7.49864 -4.67792
LeftUpLeg  -17.1372 7.27812 4.50718
LeftLeg  26.2032 -4.10568 -1.84704
LeftFoot  -1.20924 0.462078 -5.13555
LeftToes  -3.01956e-010 3.07132e-011 1.04116e-011
771
root  -37.6104 39.3712 -0.118272 100.887 -86.356 -112.447
RightUpLeg  14.0013 -8.66656 1.6697
RightLeg  13.7169 1.75617 1.80793
RightFoot  -15.2356 -0.220887 -3.4636
RightToes  2.21189e-009 0 -3.6325e-017
Spine  2.29031 -0.274617 11.7639
Spine1  12.3305 0.831936 -2.28516
HEad  -1.90382 3.10387 -5.11679
LeftShoulder1  -0.35243 4.40143 -33.1324
LeftArm  -5.89828 10.6501 -33.5067
LeftForeArm  49.3522 -78.067 -64.2154
LeftHand  -0.108328 0.740534 2.63888
RightShoulder  -0.826506 -5.76799 29.8878
RightArm  -7.22437 -18.6913 31.0908
RightForeArm  104.759 74.7947 132.527
RightHand  -0.575422 7.08306 -5.69079
LeftUpLeg  -16.2169 7.31382 4.99285
LeftLeg  14.1538 -3.35141 -0.779301
LeftFoot  -1.19682 0.520839 -5.78229
LeftToes  -3.01956e-010 3.07132e-011 1.04116e-011
772
root  -38.9032 39.2778 -0.246243 108.416 -85.6459 -119.833
RightUpLeg  17.0153 -8.07286 2.3306
RightLeg  11.5485 1.79085 1.4824
RightFoot  -16.1785 -0.246772 -3.25759
RightToes  2.21189e-009 0 -3.6325e-017
Spine  1.08367 0.118016 11.9603
Spine1  12.99 1.16742 -2.93678
HEad  -1.32335 3.25897 -4.81429
LeftShoulder1  -0.334808 4.3619 -32.8147
LeftArm  -5.66438 9.17915 -33.407
LeftForeArm  46.8135 -77.8501 -62.5441
LeftHand  -0.119354 0.406209 2.76181
RightShoulder  -0.817565 -5.74135 29.908
RightArm  -7.7285 -16.5749 32.1605
RightForeArm  102.515 75.4379 129.718
RightHand  -0.499531 6.68015 -5.14702
LeftUpLeg  -14.7821 6.50234 5.79682
LeftLeg  2.46618 -0.95673 -0.232015
LeftFoot  -1.55893 0.58399 -6.70198
LeftToes  -3.01956e-010 3.07132e-011 1.04116e-011
